<svg
  id="visual"
  viewBox="0 0 900 300"
  width="900"
  height="300"
  xmlns="http://www.w3.org/2000/svg"
  xmlns:xlink="http://www.w3.org/1999/xlink"
  version="1.1"
><rect x="0" y="0" width="940" height="300" fill="#cc208e" /><path
    d="M0 231L18.8 227.7C37.7 224.3 75.3 217.7 112.8 214C150.3 210.3 187.7 209.7 225.2 214.8C262.7 220 300.3 231 337.8 236C375.3 241 412.7 240 450.2 230C487.7 220 525.3 201 562.8 192.3C600.3 183.7 637.7 185.3 675.2 187.5C712.7 189.7 750.3 192.3 787.8 188C825.3 183.7 862.7 172.3 881.3 166.7L900 161L900 0L881.3 0C862.7 0 825.3 0 787.8 0C750.3 0 712.7 0 675.2 0C637.7 0 600.3 0 562.8 0C525.3 0 487.7 0 450.2 0C412.7 0 375.3 0 337.8 0C300.3 0 262.7 0 225.2 0C187.7 0 150.3 0 112.8 0C75.3 0 37.7 0 18.8 0L0 0Z"
    fill="#6713d2"
  /><path
    d="M0 166L18.8 161.7C37.7 157.3 75.3 148.7 112.8 145.2C150.3 141.7 187.7 143.3 225.2 142.3C262.7 141.3 300.3 137.7 337.8 145.8C375.3 154 412.7 174 450.2 177.5C487.7 181 525.3 168 562.8 167.7C600.3 167.3 637.7 179.7 675.2 182.5C712.7 185.3 750.3 178.7 787.8 173.7C825.3 168.7 862.7 165.3 881.3 163.7L900 162L900 0L881.3 0C862.7 0 825.3 0 787.8 0C750.3 0 712.7 0 675.2 0C637.7 0 600.3 0 562.8 0C525.3 0 487.7 0 450.2 0C412.7 0 375.3 0 337.8 0C300.3 0 262.7 0 225.2 0C187.7 0 150.3 0 112.8 0C75.3 0 37.7 0 18.8 0L0 0Z"
    fill="#f16367"
  /><path
    d="M0 131L18.8 132.7C37.7 134.3 75.3 137.7 112.8 138.7C150.3 139.7 187.7 138.3 225.2 133.3C262.7 128.3 300.3 119.7 337.8 125.8C375.3 132 412.7 153 450.2 152.3C487.7 151.7 525.3 129.3 562.8 123.3C600.3 117.3 637.7 127.7 675.2 131.5C712.7 135.3 750.3 132.7 787.8 136.2C825.3 139.7 862.7 149.3 881.3 154.2L900 159L900 0L881.3 0C862.7 0 825.3 0 787.8 0C750.3 0 712.7 0 675.2 0C637.7 0 600.3 0 562.8 0C525.3 0 487.7 0 450.2 0C412.7 0 375.3 0 337.8 0C300.3 0 262.7 0 225.2 0C187.7 0 150.3 0 112.8 0C75.3 0 37.7 0 18.8 0L0 0Z"
    fill="#e85467"
  /><path
    d="M0 89L18.8 90.5C37.7 92 75.3 95 112.8 93C150.3 91 187.7 84 225.2 88.3C262.7 92.7 300.3 108.3 337.8 118.2C375.3 128 412.7 132 450.2 130.3C487.7 128.7 525.3 121.3 562.8 113.3C600.3 105.3 637.7 96.7 675.2 98.5C712.7 100.3 750.3 112.7 787.8 114.8C825.3 117 862.7 109 881.3 105L900 101L900 0L881.3 0C862.7 0 825.3 0 787.8 0C750.3 0 712.7 0 675.2 0C637.7 0 600.3 0 562.8 0C525.3 0 487.7 0 450.2 0C412.7 0 375.3 0 337.8 0C300.3 0 262.7 0 225.2 0C187.7 0 150.3 0 112.8 0C75.3 0 37.7 0 18.8 0L0 0Z"
    fill="#de4467"
  /><path
    d="M0 73L18.8 76.7C37.7 80.3 75.3 87.7 112.8 87.5C150.3 87.3 187.7 79.7 225.2 78C262.7 76.3 300.3 80.7 337.8 80.2C375.3 79.7 412.7 74.3 450.2 71C487.7 67.7 525.3 66.3 562.8 63C600.3 59.7 637.7 54.3 675.2 58.7C712.7 63 750.3 77 787.8 78.2C825.3 79.3 862.7 67.7 881.3 61.8L900 56L900 0L881.3 0C862.7 0 825.3 0 787.8 0C750.3 0 712.7 0 675.2 0C637.7 0 600.3 0 562.8 0C525.3 0 487.7 0 450.2 0C412.7 0 375.3 0 337.8 0C300.3 0 262.7 0 225.2 0C187.7 0 150.3 0 112.8 0C75.3 0 37.7 0 18.8 0L0 0Z"
    fill="#d23467"
  /><path
    d="M0 43L18.8 43.2C37.7 43.3 75.3 43.7 112.8 40.8C150.3 38 187.7 32 225.2 31.5C262.7 31 300.3 36 337.8 40.5C375.3 45 412.7 49 450.2 51.8C487.7 54.7 525.3 56.3 562.8 57.2C600.3 58 637.7 58 675.2 54C712.7 50 750.3 42 787.8 42.8C825.3 43.7 862.7 53.3 881.3 58.2L900 63L900 0L881.3 0C862.7 0 825.3 0 787.8 0C750.3 0 712.7 0 675.2 0C637.7 0 600.3 0 562.8 0C525.3 0 487.7 0 450.2 0C412.7 0 375.3 0 337.8 0C300.3 0 262.7 0 225.2 0C187.7 0 150.3 0 112.8 0C75.3 0 37.7 0 18.8 0L0 0Z"
    fill="#c62368"
  /></svg>
