<svg
  id="visual"
  viewBox="0 0 1000 300"
  width="1000"
  height="300"
  xmlns="http://www.w3.org/2000/svg"
  xmlns:xlink="http://www.w3.org/1999/xlink"
  version="1.1"
><rect x="0" y="0" width="1000" height="300" fill="#483737" /><path
    d="M0 249L20.8 246C41.7 243 83.3 237 125 225.2C166.7 213.3 208.3 195.7 250 197.7C291.7 199.7 333.3 221.3 375 230.3C416.7 239.3 458.3 235.7 500 224C541.7 212.3 583.3 192.7 625 191.3C666.7 190 708.3 207 750 212.2C791.7 217.3 833.3 210.7 875 201.2C916.7 191.7 958.3 179.3 979.2 173.2L1000 167L1000 0L979.2 0C958.3 0 916.7 0 875 0C833.3 0 791.7 0 750 0C708.3 0 666.7 0 625 0C583.3 0 541.7 0 500 0C458.3 0 416.7 0 375 0C333.3 0 291.7 0 250 0C208.3 0 166.7 0 125 0C83.3 0 41.7 0 20.8 0L0 0Z"
    fill="#fcc4c4"
  /><path
    d="M0 143L20.8 142.3C41.7 141.7 83.3 140.3 125 152C166.7 163.7 208.3 188.3 250 195.8C291.7 203.3 333.3 193.7 375 183.3C416.7 173 458.3 162 500 159.2C541.7 156.3 583.3 161.7 625 160.8C666.7 160 708.3 153 750 149.8C791.7 146.7 833.3 147.3 875 152C916.7 156.7 958.3 165.3 979.2 169.7L1000 174L1000 0L979.2 0C958.3 0 916.7 0 875 0C833.3 0 791.7 0 750 0C708.3 0 666.7 0 625 0C583.3 0 541.7 0 500 0C458.3 0 416.7 0 375 0C333.3 0 291.7 0 250 0C208.3 0 166.7 0 125 0C83.3 0 41.7 0 20.8 0L0 0Z"
    fill="#feb2b1"
  /><path
    d="M0 149L20.8 142.2C41.7 135.3 83.3 121.7 125 123C166.7 124.3 208.3 140.7 250 142.7C291.7 144.7 333.3 132.3 375 132.7C416.7 133 458.3 146 500 151.2C541.7 156.3 583.3 153.7 625 150.2C666.7 146.7 708.3 142.3 750 136.5C791.7 130.7 833.3 123.3 875 125.2C916.7 127 958.3 138 979.2 143.5L1000 149L1000 0L979.2 0C958.3 0 916.7 0 875 0C833.3 0 791.7 0 750 0C708.3 0 666.7 0 625 0C583.3 0 541.7 0 500 0C458.3 0 416.7 0 375 0C333.3 0 291.7 0 250 0C208.3 0 166.7 0 125 0C83.3 0 41.7 0 20.8 0L0 0Z"
    fill="#ff9f9f"
  /><path
    d="M0 100L20.8 98C41.7 96 83.3 92 125 88.2C166.7 84.3 208.3 80.7 250 87C291.7 93.3 333.3 109.7 375 111.2C416.7 112.7 458.3 99.3 500 100.7C541.7 102 583.3 118 625 124.7C666.7 131.3 708.3 128.7 750 129C791.7 129.3 833.3 132.7 875 131.3C916.7 130 958.3 124 979.2 121L1000 118L1000 0L979.2 0C958.3 0 916.7 0 875 0C833.3 0 791.7 0 750 0C708.3 0 666.7 0 625 0C583.3 0 541.7 0 500 0C458.3 0 416.7 0 375 0C333.3 0 291.7 0 250 0C208.3 0 166.7 0 125 0C83.3 0 41.7 0 20.8 0L0 0Z"
    fill="#ff8d8b"
  /><path
    d="M0 92L20.8 88.5C41.7 85 83.3 78 125 78C166.7 78 208.3 85 250 84.5C291.7 84 333.3 76 375 72.3C416.7 68.7 458.3 69.3 500 73.2C541.7 77 583.3 84 625 89C666.7 94 708.3 97 750 92.5C791.7 88 833.3 76 875 74.2C916.7 72.3 958.3 80.7 979.2 84.8L1000 89L1000 0L979.2 0C958.3 0 916.7 0 875 0C833.3 0 791.7 0 750 0C708.3 0 666.7 0 625 0C583.3 0 541.7 0 500 0C458.3 0 416.7 0 375 0C333.3 0 291.7 0 250 0C208.3 0 166.7 0 125 0C83.3 0 41.7 0 20.8 0L0 0Z"
    fill="#ff7978"
  /><path
    d="M0 23L20.8 27C41.7 31 83.3 39 125 39.3C166.7 39.7 208.3 32.3 250 30.7C291.7 29 333.3 33 375 36.3C416.7 39.7 458.3 42.3 500 40.2C541.7 38 583.3 31 625 29.2C666.7 27.3 708.3 30.7 750 31.8C791.7 33 833.3 32 875 35.7C916.7 39.3 958.3 47.7 979.2 51.8L1000 56L1000 0L979.2 0C958.3 0 916.7 0 875 0C833.3 0 791.7 0 750 0C708.3 0 666.7 0 625 0C583.3 0 541.7 0 500 0C458.3 0 416.7 0 375 0C333.3 0 291.7 0 250 0C208.3 0 166.7 0 125 0C83.3 0 41.7 0 20.8 0L0 0Z"
    fill="#ff6464"
  /></svg>
