<svg
  id="visual"
  viewBox="0 0 1000 150"
  width="1000"
  height="150"
  xmlns="http://www.w3.org/2000/svg"
  xmlns:xlink="http://www.w3.org/1999/xlink"
  version="1.1"
><path
    d="M0 37L20.8 37.3C41.7 37.7 83.3 38.3 125 42.2C166.7 46 208.3 53 250 56.7C291.7 60.3 333.3 60.7 375 57.8C416.7 55 458.3 49 500 47C541.7 45 583.3 47 625 48.3C666.7 49.7 708.3 50.3 750 45.8C791.7 41.3 833.3 31.7 875 26.7C916.7 21.7 958.3 21.3 979.2 21.2L1000 21L1000 0L979.2 0C958.3 0 916.7 0 875 0C833.3 0 791.7 0 750 0C708.3 0 666.7 0 625 0C583.3 0 541.7 0 500 0C458.3 0 416.7 0 375 0C333.3 0 291.7 0 250 0C208.3 0 166.7 0 125 0C83.3 0 41.7 0 20.8 0L0 0Z"
    fill="#fcc4c4"
  /><path
    d="M0 84L20.8 84C41.7 84 83.3 84 125 85C166.7 86 208.3 88 250 91.7C291.7 95.3 333.3 100.7 375 101.3C416.7 102 458.3 98 500 91.3C541.7 84.7 583.3 75.3 625 74.8C666.7 74.3 708.3 82.7 750 83.3C791.7 84 833.3 77 875 73.3C916.7 69.7 958.3 69.3 979.2 69.2L1000 69L1000 19L979.2 19.2C958.3 19.3 916.7 19.7 875 24.7C833.3 29.7 791.7 39.3 750 43.8C708.3 48.3 666.7 47.7 625 46.3C583.3 45 541.7 43 500 45C458.3 47 416.7 53 375 55.8C333.3 58.7 291.7 58.3 250 54.7C208.3 51 166.7 44 125 40.2C83.3 36.3 41.7 35.7 20.8 35.3L0 35Z"
    fill="#feb2b1"
  /><path
    d="M0 106L20.8 104.5C41.7 103 83.3 100 125 102C166.7 104 208.3 111 250 115C291.7 119 333.3 120 375 118.5C416.7 117 458.3 113 500 107.8C541.7 102.7 583.3 96.3 625 96.2C666.7 96 708.3 102 750 100.2C791.7 98.3 833.3 88.7 875 83.8C916.7 79 958.3 79 979.2 79L1000 79L1000 67L979.2 67.2C958.3 67.3 916.7 67.7 875 71.3C833.3 75 791.7 82 750 81.3C708.3 80.7 666.7 72.3 625 72.8C583.3 73.3 541.7 82.7 500 89.3C458.3 96 416.7 100 375 99.3C333.3 98.7 291.7 93.3 250 89.7C208.3 86 166.7 84 125 83C83.3 82 41.7 82 20.8 82L0 82Z"
    fill="#ff9f9f"
  /><path
    d="M0 124L20.8 122C41.7 120 83.3 116 125 116.3C166.7 116.7 208.3 121.3 250 124.3C291.7 127.3 333.3 128.7 375 128.2C416.7 127.7 458.3 125.3 500 119.8C541.7 114.3 583.3 105.7 625 105.2C666.7 104.7 708.3 112.3 750 112.7C791.7 113 833.3 106 875 101.7C916.7 97.3 958.3 95.7 979.2 94.8L1000 94L1000 77L979.2 77C958.3 77 916.7 77 875 81.8C833.3 86.7 791.7 96.3 750 98.2C708.3 100 666.7 94 625 94.2C583.3 94.3 541.7 100.7 500 105.8C458.3 111 416.7 115 375 116.5C333.3 118 291.7 117 250 113C208.3 109 166.7 102 125 100C83.3 98 41.7 101 20.8 102.5L0 104Z"
    fill="#ff8d8b"
  /><path
    d="M0 141L20.8 137.5C41.7 134 83.3 127 125 126.7C166.7 126.3 208.3 132.7 250 135.7C291.7 138.7 333.3 138.3 375 136.8C416.7 135.3 458.3 132.7 500 128.8C541.7 125 583.3 120 625 120C666.7 120 708.3 125 750 125.5C791.7 126 833.3 122 875 119.5C916.7 117 958.3 116 979.2 115.5L1000 115L1000 92L979.2 92.8C958.3 93.7 916.7 95.3 875 99.7C833.3 104 791.7 111 750 110.7C708.3 110.3 666.7 102.7 625 103.2C583.3 103.7 541.7 112.3 500 117.8C458.3 123.3 416.7 125.7 375 126.2C333.3 126.7 291.7 125.3 250 122.3C208.3 119.3 166.7 114.7 125 114.3C83.3 114 41.7 118 20.8 120L0 122Z"
    fill="#ff7978"
  /><path
    d="M0 151L20.8 151C41.7 151 83.3 151 125 151C166.7 151 208.3 151 250 151C291.7 151 333.3 151 375 151C416.7 151 458.3 151 500 151C541.7 151 583.3 151 625 151C666.7 151 708.3 151 750 151C791.7 151 833.3 151 875 151C916.7 151 958.3 151 979.2 151L1000 151L1000 113L979.2 113.5C958.3 114 916.7 115 875 117.5C833.3 120 791.7 124 750 123.5C708.3 123 666.7 118 625 118C583.3 118 541.7 123 500 126.8C458.3 130.7 416.7 133.3 375 134.8C333.3 136.3 291.7 136.7 250 133.7C208.3 130.7 166.7 124.3 125 124.7C83.3 125 41.7 132 20.8 135.5L0 139Z"
    fill="#ff6464"
  /></svg>
