<svg
  id="visual"
  viewBox="0 0 1000 300"
  width="1000"
  height="300"
  xmlns="http://www.w3.org/2000/svg"
  xmlns:xlink="http://www.w3.org/1999/xlink"
  version="1.1"
><path
    d="M0 46L15.2 42C30.3 38 60.7 30 91 29.5C121.3 29 151.7 36 182 39C212.3 42 242.7 41 273 43C303.3 45 333.7 50 364 50C394.3 50 424.7 45 454.8 42.5C485 40 515 40 545.2 44C575.3 48 605.7 56 636 58C666.3 60 696.7 56 727 51.5C757.3 47 787.7 42 818 42C848.3 42 878.7 47 909 47.5C939.3 48 969.7 44 984.8 42L1000 40L1000 0L984.8 0C969.7 0 939.3 0 909 0C878.7 0 848.3 0 818 0C787.7 0 757.3 0 727 0C696.7 0 666.3 0 636 0C605.7 0 575.3 0 545.2 0C515 0 485 0 454.8 0C424.7 0 394.3 0 364 0C333.7 0 303.3 0 273 0C242.7 0 212.3 0 182 0C151.7 0 121.3 0 91 0C60.7 0 30.3 0 15.2 0L0 0Z"
    fill="#fcc4c4"
  /><path
    d="M0 67L15.2 66.5C30.3 66 60.7 65 91 67C121.3 69 151.7 74 182 75C212.3 76 242.7 73 273 73.5C303.3 74 333.7 78 364 78.5C394.3 79 424.7 76 454.8 73.5C485 71 515 69 545.2 71C575.3 73 605.7 79 636 80C666.3 81 696.7 77 727 74C757.3 71 787.7 69 818 70.5C848.3 72 878.7 77 909 74.5C939.3 72 969.7 62 984.8 57L1000 52L1000 38L984.8 40C969.7 42 939.3 46 909 45.5C878.7 45 848.3 40 818 40C787.7 40 757.3 45 727 49.5C696.7 54 666.3 58 636 56C605.7 54 575.3 46 545.2 42C515 38 485 38 454.8 40.5C424.7 43 394.3 48 364 48C333.7 48 303.3 43 273 41C242.7 39 212.3 40 182 37C151.7 34 121.3 27 91 27.5C60.7 28 30.3 36 15.2 40L0 44Z"
    fill="#feb7b7"
  /><path
    d="M0 103L15.2 99.5C30.3 96 60.7 89 91 88C121.3 87 151.7 92 182 93.5C212.3 95 242.7 93 273 96C303.3 99 333.7 107 364 109C394.3 111 424.7 107 454.8 104C485 101 515 99 545.2 98.5C575.3 98 605.7 99 636 98C666.3 97 696.7 94 727 93C757.3 92 787.7 93 818 97C848.3 101 878.7 108 909 106C939.3 104 969.7 93 984.8 87.5L1000 82L1000 50L984.8 55C969.7 60 939.3 70 909 72.5C878.7 75 848.3 70 818 68.5C787.7 67 757.3 69 727 72C696.7 75 666.3 79 636 78C605.7 77 575.3 71 545.2 69C515 67 485 69 454.8 71.5C424.7 74 394.3 77 364 76.5C333.7 76 303.3 72 273 71.5C242.7 71 212.3 74 182 73C151.7 72 121.3 67 91 65C60.7 63 30.3 64 15.2 64.5L0 65Z"
    fill="#ffaaa9"
  /><path
    d="M0 127L15.2 122C30.3 117 60.7 107 91 105C121.3 103 151.7 109 182 110.5C212.3 112 242.7 109 273 111C303.3 113 333.7 120 364 122C394.3 124 424.7 121 454.8 117.5C485 114 515 110 545.2 109.5C575.3 109 605.7 112 636 112.5C666.3 113 696.7 111 727 109C757.3 107 787.7 105 818 110C848.3 115 878.7 127 909 126.5C939.3 126 969.7 113 984.8 106.5L1000 100L1000 80L984.8 85.5C969.7 91 939.3 102 909 104C878.7 106 848.3 99 818 95C787.7 91 757.3 90 727 91C696.7 92 666.3 95 636 96C605.7 97 575.3 96 545.2 96.5C515 97 485 99 454.8 102C424.7 105 394.3 109 364 107C333.7 105 303.3 97 273 94C242.7 91 212.3 93 182 91.5C151.7 90 121.3 85 91 86C60.7 87 30.3 94 15.2 97.5L0 101Z"
    fill="#ff9d9c"
  /><path
    d="M0 142L15.2 138C30.3 134 60.7 126 91 125.5C121.3 125 151.7 132 182 133C212.3 134 242.7 129 273 131C303.3 133 333.7 142 364 142.5C394.3 143 424.7 135 454.8 132C485 129 515 131 545.2 131.5C575.3 132 605.7 131 636 130.5C666.3 130 696.7 130 727 131C757.3 132 787.7 134 818 139C848.3 144 878.7 152 909 149C939.3 146 969.7 132 984.8 125L1000 118L1000 98L984.8 104.5C969.7 111 939.3 124 909 124.5C878.7 125 848.3 113 818 108C787.7 103 757.3 105 727 107C696.7 109 666.3 111 636 110.5C605.7 110 575.3 107 545.2 107.5C515 108 485 112 454.8 115.5C424.7 119 394.3 122 364 120C333.7 118 303.3 111 273 109C242.7 107 212.3 110 182 108.5C151.7 107 121.3 101 91 103C60.7 105 30.3 115 15.2 120L0 125Z"
    fill="#ff8f8e"
  /><path
    d="M0 199L15.2 199C30.3 199 60.7 199 91 197C121.3 195 151.7 191 182 187C212.3 183 242.7 179 273 180C303.3 181 333.7 187 364 187C394.3 187 424.7 181 454.8 182C485 183 515 191 545.2 196C575.3 201 605.7 203 636 198C666.3 193 696.7 181 727 184.5C757.3 188 787.7 207 818 219C848.3 231 878.7 236 909 233.5C939.3 231 969.7 221 984.8 216L1000 211L1000 116L984.8 123C969.7 130 939.3 144 909 147C878.7 150 848.3 142 818 137C787.7 132 757.3 130 727 129C696.7 128 666.3 128 636 128.5C605.7 129 575.3 130 545.2 129.5C515 129 485 127 454.8 130C424.7 133 394.3 141 364 140.5C333.7 140 303.3 131 273 129C242.7 127 212.3 132 182 131C151.7 130 121.3 123 91 123.5C60.7 124 30.3 132 15.2 136L0 140Z"
    fill="#ff8180"
  /><path
    d="M0 244L15.2 240C30.3 236 60.7 228 91 224.5C121.3 221 151.7 222 182 221.5C212.3 221 242.7 219 273 218C303.3 217 333.7 217 364 218C394.3 219 424.7 221 454.8 226C485 231 515 239 545.2 244.5C575.3 250 605.7 253 636 246.5C666.3 240 696.7 224 727 225.5C757.3 227 787.7 246 818 255.5C848.3 265 878.7 265 909 264C939.3 263 969.7 261 984.8 260L1000 259L1000 209L984.8 214C969.7 219 939.3 229 909 231.5C878.7 234 848.3 229 818 217C787.7 205 757.3 186 727 182.5C696.7 179 666.3 191 636 196C605.7 201 575.3 199 545.2 194C515 189 485 181 454.8 180C424.7 179 394.3 185 364 185C333.7 185 303.3 179 273 178C242.7 177 212.3 181 182 185C151.7 189 121.3 193 91 195C60.7 197 30.3 197 15.2 197L0 197Z"
    fill="#ff7372"
  /><path
    d="M0 301L15.2 301C30.3 301 60.7 301 91 301C121.3 301 151.7 301 182 301C212.3 301 242.7 301 273 301C303.3 301 333.7 301 364 301C394.3 301 424.7 301 454.8 301C485 301 515 301 545.2 301C575.3 301 605.7 301 636 301C666.3 301 696.7 301 727 301C757.3 301 787.7 301 818 301C848.3 301 878.7 301 909 301C939.3 301 969.7 301 984.8 301L1000 301L1000 257L984.8 258C969.7 259 939.3 261 909 262C878.7 263 848.3 263 818 253.5C787.7 244 757.3 225 727 223.5C696.7 222 666.3 238 636 244.5C605.7 251 575.3 248 545.2 242.5C515 237 485 229 454.8 224C424.7 219 394.3 217 364 216C333.7 215 303.3 215 273 216C242.7 217 212.3 219 182 219.5C151.7 220 121.3 219 91 222.5C60.7 226 30.3 234 15.2 238L0 242Z"
    fill="#ff6464"
  /></svg>
