<svg
  id="visual"
  viewBox="0 0 1000 200"
  width="1000"
  height="200"
  xmlns="http://www.w3.org/2000/svg"
  xmlns:xlink="http://www.w3.org/1999/xlink"
  version="1.1"
><path
    d="M0 51L13.8 49.3C27.7 47.7 55.3 44.3 83.2 47.3C111 50.3 139 59.7 166.8 59.7C194.7 59.7 222.3 50.3 250 45.7C277.7 41 305.3 41 333.2 45.3C361 49.7 389 58.3 416.8 60.3C444.7 62.3 472.3 57.7 500 55C527.7 52.3 555.3 51.7 583.2 55.7C611 59.7 639 68.3 666.8 67.7C694.7 67 722.3 57 750 50C777.7 43 805.3 39 833.2 43.7C861 48.3 889 61.7 916.8 65.7C944.7 69.7 972.3 64.3 986.2 61.7L1000 59L1000 0L986.2 0C972.3 0 944.7 0 916.8 0C889 0 861 0 833.2 0C805.3 0 777.7 0 750 0C722.3 0 694.7 0 666.8 0C639 0 611 0 583.2 0C555.3 0 527.7 0 500 0C472.3 0 444.7 0 416.8 0C389 0 361 0 333.2 0C305.3 0 277.7 0 250 0C222.3 0 194.7 0 166.8 0C139 0 111 0 83.2 0C55.3 0 27.7 0 13.8 0L0 0Z"
    fill="#fcc4c4"
  /><path
    d="M0 67L13.8 64.7C27.7 62.3 55.3 57.7 83.2 62C111 66.3 139 79.7 166.8 80C194.7 80.3 222.3 67.7 250 61C277.7 54.3 305.3 53.7 333.2 58C361 62.3 389 71.7 416.8 76.3C444.7 81 472.3 81 500 79.3C527.7 77.7 555.3 74.3 583.2 77.3C611 80.3 639 89.7 666.8 89.3C694.7 89 722.3 79 750 75C777.7 71 805.3 73 833.2 78C861 83 889 91 916.8 94.7C944.7 98.3 972.3 97.7 986.2 97.3L1000 97L1000 57L986.2 59.7C972.3 62.3 944.7 67.7 916.8 63.7C889 59.7 861 46.3 833.2 41.7C805.3 37 777.7 41 750 48C722.3 55 694.7 65 666.8 65.7C639 66.3 611 57.7 583.2 53.7C555.3 49.7 527.7 50.3 500 53C472.3 55.7 444.7 60.3 416.8 58.3C389 56.3 361 47.7 333.2 43.3C305.3 39 277.7 39 250 43.7C222.3 48.3 194.7 57.7 166.8 57.7C139 57.7 111 48.3 83.2 45.3C55.3 42.3 27.7 45.7 13.8 47.3L0 49Z"
    fill="#feb2b1"
  /><path
    d="M0 91L13.8 88.7C27.7 86.3 55.3 81.7 83.2 86.7C111 91.7 139 106.3 166.8 105.7C194.7 105 222.3 89 250 80.3C277.7 71.7 305.3 70.3 333.2 73.7C361 77 389 85 416.8 91.3C444.7 97.7 472.3 102.3 500 101.7C527.7 101 555.3 95 583.2 95.7C611 96.3 639 103.7 666.8 104.3C694.7 105 722.3 99 750 95C777.7 91 805.3 89 833.2 92.7C861 96.3 889 105.7 916.8 110.7C944.7 115.7 972.3 116.3 986.2 116.7L1000 117L1000 95L986.2 95.3C972.3 95.7 944.7 96.3 916.8 92.7C889 89 861 81 833.2 76C805.3 71 777.7 69 750 73C722.3 77 694.7 87 666.8 87.3C639 87.7 611 78.3 583.2 75.3C555.3 72.3 527.7 75.7 500 77.3C472.3 79 444.7 79 416.8 74.3C389 69.7 361 60.3 333.2 56C305.3 51.7 277.7 52.3 250 59C222.3 65.7 194.7 78.3 166.8 78C139 77.7 111 64.3 83.2 60C55.3 55.7 27.7 60.3 13.8 62.7L0 65Z"
    fill="#ff9f9f"
  /><path
    d="M0 121L13.8 117.7C27.7 114.3 55.3 107.7 83.2 112.3C111 117 139 133 166.8 130.7C194.7 128.3 222.3 107.7 250 97.7C277.7 87.7 305.3 88.3 333.2 92.7C361 97 389 105 416.8 112.7C444.7 120.3 472.3 127.7 500 125.7C527.7 123.7 555.3 112.3 583.2 110.7C611 109 639 117 666.8 118.7C694.7 120.3 722.3 115.7 750 111.7C777.7 107.7 805.3 104.3 833.2 107C861 109.7 889 118.3 916.8 124C944.7 129.7 972.3 132.3 986.2 133.7L1000 135L1000 115L986.2 114.7C972.3 114.3 944.7 113.7 916.8 108.7C889 103.7 861 94.3 833.2 90.7C805.3 87 777.7 89 750 93C722.3 97 694.7 103 666.8 102.3C639 101.7 611 94.3 583.2 93.7C555.3 93 527.7 99 500 99.7C472.3 100.3 444.7 95.7 416.8 89.3C389 83 361 75 333.2 71.7C305.3 68.3 277.7 69.7 250 78.3C222.3 87 194.7 103 166.8 103.7C139 104.3 111 89.7 83.2 84.7C55.3 79.7 27.7 84.3 13.8 86.7L0 89Z"
    fill="#ff8d8b"
  /><path
    d="M0 161L13.8 154.3C27.7 147.7 55.3 134.3 83.2 134.7C111 135 139 149 166.8 152C194.7 155 222.3 147 250 140.3C277.7 133.7 305.3 128.3 333.2 130.3C361 132.3 389 141.7 416.8 149.7C444.7 157.7 472.3 164.3 500 163.3C527.7 162.3 555.3 153.7 583.2 149.7C611 145.7 639 146.3 666.8 144.7C694.7 143 722.3 139 750 134.3C777.7 129.7 805.3 124.3 833.2 129.7C861 135 889 151 916.8 159.3C944.7 167.7 972.3 168.3 986.2 168.7L1000 169L1000 133L986.2 131.7C972.3 130.3 944.7 127.7 916.8 122C889 116.3 861 107.7 833.2 105C805.3 102.3 777.7 105.7 750 109.7C722.3 113.7 694.7 118.3 666.8 116.7C639 115 611 107 583.2 108.7C555.3 110.3 527.7 121.7 500 123.7C472.3 125.7 444.7 118.3 416.8 110.7C389 103 361 95 333.2 90.7C305.3 86.3 277.7 85.7 250 95.7C222.3 105.7 194.7 126.3 166.8 128.7C139 131 111 115 83.2 110.3C55.3 105.7 27.7 112.3 13.8 115.7L0 119Z"
    fill="#ff7978"
  /><path
    d="M0 201L13.8 201C27.7 201 55.3 201 83.2 201C111 201 139 201 166.8 201C194.7 201 222.3 201 250 201C277.7 201 305.3 201 333.2 201C361 201 389 201 416.8 201C444.7 201 472.3 201 500 201C527.7 201 555.3 201 583.2 201C611 201 639 201 666.8 201C694.7 201 722.3 201 750 201C777.7 201 805.3 201 833.2 201C861 201 889 201 916.8 201C944.7 201 972.3 201 986.2 201L1000 201L1000 167L986.2 166.7C972.3 166.3 944.7 165.7 916.8 157.3C889 149 861 133 833.2 127.7C805.3 122.3 777.7 127.7 750 132.3C722.3 137 694.7 141 666.8 142.7C639 144.3 611 143.7 583.2 147.7C555.3 151.7 527.7 160.3 500 161.3C472.3 162.3 444.7 155.7 416.8 147.7C389 139.7 361 130.3 333.2 128.3C305.3 126.3 277.7 131.7 250 138.3C222.3 145 194.7 153 166.8 150C139 147 111 133 83.2 132.7C55.3 132.3 27.7 145.7 13.8 152.3L0 159Z"
    fill="#ff6464"
  /></svg>
